<mxfile host="app.diagrams.net" modified="2024-06-22T14:06:03.448Z" agent="Mozilla/5.0 (Windows NT 10.0; Win64; x64) AppleWebKit/537.36 (KHTML, like Gecko) Chrome/126.0.0.0 Safari/537.36 Edg/126.0.0.0" etag="QZmNZSzdP-WrY0ZoM_Ui" version="24.6.2" type="device">
  <diagram name="第 1 页" id="SoRJphl0n2ggJiB2R5LU">
    <mxGraphModel dx="2503" dy="2233" grid="1" gridSize="10" guides="1" tooltips="1" connect="1" arrows="1" fold="1" page="1" pageScale="1" pageWidth="827" pageHeight="1169" math="0" shadow="0">
      <root>
        <mxCell id="0" />
        <mxCell id="1" parent="0" />
        <mxCell id="MV2tPDvPNBY6R5nugIcb-170" value="" style="edgeStyle=orthogonalEdgeStyle;rounded=0;orthogonalLoop=1;jettySize=auto;html=1;" parent="1" source="MV2tPDvPNBY6R5nugIcb-75" target="MV2tPDvPNBY6R5nugIcb-133" edge="1">
          <mxGeometry relative="1" as="geometry" />
        </mxCell>
        <mxCell id="MV2tPDvPNBY6R5nugIcb-75" value="" style="ellipse;whiteSpace=wrap;html=1;aspect=fixed;" parent="1" vertex="1">
          <mxGeometry x="1770" y="-140" width="40" height="40" as="geometry" />
        </mxCell>
        <mxCell id="MV2tPDvPNBY6R5nugIcb-76" value="user == null ?" style="ellipse;whiteSpace=wrap;html=1;" parent="1" vertex="1">
          <mxGeometry x="1495" y="300" width="90" height="50" as="geometry" />
        </mxCell>
        <mxCell id="MV2tPDvPNBY6R5nugIcb-77" value="ERROR" style="ellipse;whiteSpace=wrap;html=1;" parent="1" vertex="1">
          <mxGeometry x="1350" y="410" width="110" height="50" as="geometry" />
        </mxCell>
        <mxCell id="MV2tPDvPNBY6R5nugIcb-80" value="" style="ellipse;whiteSpace=wrap;html=1;aspect=fixed;" parent="1" vertex="1">
          <mxGeometry x="1520" y="210" width="40" height="40" as="geometry" />
        </mxCell>
        <mxCell id="MV2tPDvPNBY6R5nugIcb-81" value="" style="endArrow=classic;html=1;rounded=0;entryX=1;entryY=0.5;entryDx=0;entryDy=0;exitX=0.341;exitY=1.007;exitDx=0;exitDy=0;exitPerimeter=0;" parent="1" source="MV2tPDvPNBY6R5nugIcb-135" target="MV2tPDvPNBY6R5nugIcb-80" edge="1">
          <mxGeometry width="50" height="50" relative="1" as="geometry">
            <mxPoint x="1610" y="190" as="sourcePoint" />
            <mxPoint x="1640" y="280" as="targetPoint" />
          </mxGeometry>
        </mxCell>
        <mxCell id="MV2tPDvPNBY6R5nugIcb-82" value="T" style="edgeLabel;html=1;align=center;verticalAlign=middle;resizable=0;points=[];" parent="MV2tPDvPNBY6R5nugIcb-81" vertex="1" connectable="0">
          <mxGeometry x="-0.0389" y="-1" relative="1" as="geometry">
            <mxPoint as="offset" />
          </mxGeometry>
        </mxCell>
        <mxCell id="MV2tPDvPNBY6R5nugIcb-83" value="" style="endArrow=classic;html=1;rounded=0;exitX=0.5;exitY=1;exitDx=0;exitDy=0;entryX=0.5;entryY=0;entryDx=0;entryDy=0;" parent="1" source="MV2tPDvPNBY6R5nugIcb-80" target="MV2tPDvPNBY6R5nugIcb-76" edge="1">
          <mxGeometry width="50" height="50" relative="1" as="geometry">
            <mxPoint x="1640" y="150" as="sourcePoint" />
            <mxPoint x="1570" y="240" as="targetPoint" />
          </mxGeometry>
        </mxCell>
        <mxCell id="MV2tPDvPNBY6R5nugIcb-84" value="user.role ?" style="ellipse;whiteSpace=wrap;html=1;" parent="1" vertex="1">
          <mxGeometry x="1610" y="410" width="90" height="50" as="geometry" />
        </mxCell>
        <mxCell id="MV2tPDvPNBY6R5nugIcb-85" value="" style="endArrow=classic;html=1;rounded=0;exitX=0;exitY=1;exitDx=0;exitDy=0;entryX=0.715;entryY=0.08;entryDx=0;entryDy=0;entryPerimeter=0;" parent="1" source="MV2tPDvPNBY6R5nugIcb-76" target="MV2tPDvPNBY6R5nugIcb-77" edge="1">
          <mxGeometry width="50" height="50" relative="1" as="geometry">
            <mxPoint x="1550" y="260" as="sourcePoint" />
            <mxPoint x="1550" y="310" as="targetPoint" />
          </mxGeometry>
        </mxCell>
        <mxCell id="MV2tPDvPNBY6R5nugIcb-86" value="T" style="edgeLabel;html=1;align=center;verticalAlign=middle;resizable=0;points=[];" parent="MV2tPDvPNBY6R5nugIcb-85" vertex="1" connectable="0">
          <mxGeometry x="-0.0912" y="-1" relative="1" as="geometry">
            <mxPoint x="1" as="offset" />
          </mxGeometry>
        </mxCell>
        <mxCell id="MV2tPDvPNBY6R5nugIcb-87" value="" style="endArrow=classic;html=1;rounded=0;exitX=0.952;exitY=0.84;exitDx=0;exitDy=0;entryX=0.415;entryY=-0.067;entryDx=0;entryDy=0;entryPerimeter=0;exitPerimeter=0;" parent="1" source="MV2tPDvPNBY6R5nugIcb-76" target="MV2tPDvPNBY6R5nugIcb-84" edge="1">
          <mxGeometry width="50" height="50" relative="1" as="geometry">
            <mxPoint x="1518" y="353" as="sourcePoint" />
            <mxPoint x="1439" y="424" as="targetPoint" />
          </mxGeometry>
        </mxCell>
        <mxCell id="MV2tPDvPNBY6R5nugIcb-88" value="F" style="edgeLabel;html=1;align=center;verticalAlign=middle;resizable=0;points=[];" parent="MV2tPDvPNBY6R5nugIcb-87" vertex="1" connectable="0">
          <mxGeometry x="-0.1525" relative="1" as="geometry">
            <mxPoint y="1" as="offset" />
          </mxGeometry>
        </mxCell>
        <mxCell id="MV2tPDvPNBY6R5nugIcb-89" value="appMatters = 4" style="ellipse;whiteSpace=wrap;html=1;" parent="1" vertex="1">
          <mxGeometry x="1450" y="525" width="90" height="50" as="geometry" />
        </mxCell>
        <mxCell id="MV2tPDvPNBY6R5nugIcb-90" value="appMatters = 3" style="ellipse;whiteSpace=wrap;html=1;" parent="1" vertex="1">
          <mxGeometry x="1739" y="525" width="90" height="50" as="geometry" />
        </mxCell>
        <mxCell id="MV2tPDvPNBY6R5nugIcb-91" value="" style="endArrow=classic;html=1;rounded=0;exitX=0.037;exitY=0.787;exitDx=0;exitDy=0;entryX=0.77;entryY=0.087;entryDx=0;entryDy=0;entryPerimeter=0;exitPerimeter=0;" parent="1" source="MV2tPDvPNBY6R5nugIcb-84" target="MV2tPDvPNBY6R5nugIcb-89" edge="1">
          <mxGeometry width="50" height="50" relative="1" as="geometry">
            <mxPoint x="1518" y="353" as="sourcePoint" />
            <mxPoint x="1439" y="424" as="targetPoint" />
          </mxGeometry>
        </mxCell>
        <mxCell id="MV2tPDvPNBY6R5nugIcb-92" value="1" style="edgeLabel;html=1;align=center;verticalAlign=middle;resizable=0;points=[];" parent="MV2tPDvPNBY6R5nugIcb-91" vertex="1" connectable="0">
          <mxGeometry x="-0.1362" y="-2" relative="1" as="geometry">
            <mxPoint as="offset" />
          </mxGeometry>
        </mxCell>
        <mxCell id="MV2tPDvPNBY6R5nugIcb-93" value="" style="endArrow=classic;html=1;rounded=0;exitX=0.978;exitY=0.813;exitDx=0;exitDy=0;entryX=0.359;entryY=0.033;entryDx=0;entryDy=0;entryPerimeter=0;exitPerimeter=0;" parent="1" source="MV2tPDvPNBY6R5nugIcb-84" target="MV2tPDvPNBY6R5nugIcb-90" edge="1">
          <mxGeometry width="50" height="50" relative="1" as="geometry">
            <mxPoint x="1623" y="459" as="sourcePoint" />
            <mxPoint x="1529" y="539" as="targetPoint" />
          </mxGeometry>
        </mxCell>
        <mxCell id="MV2tPDvPNBY6R5nugIcb-94" value="2" style="edgeLabel;html=1;align=center;verticalAlign=middle;resizable=0;points=[];" parent="MV2tPDvPNBY6R5nugIcb-93" vertex="1" connectable="0">
          <mxGeometry x="-0.1069" relative="1" as="geometry">
            <mxPoint as="offset" />
          </mxGeometry>
        </mxCell>
        <mxCell id="MV2tPDvPNBY6R5nugIcb-95" value="" style="endArrow=classic;html=1;rounded=0;exitX=1;exitY=0.713;exitDx=0;exitDy=0;exitPerimeter=0;entryX=0;entryY=0.5;entryDx=0;entryDy=0;" parent="1" source="MV2tPDvPNBY6R5nugIcb-135" target="MV2tPDvPNBY6R5nugIcb-148" edge="1">
          <mxGeometry width="50" height="50" relative="1" as="geometry">
            <mxPoint x="1890" y="190" as="sourcePoint" />
            <mxPoint x="1970" y="180" as="targetPoint" />
          </mxGeometry>
        </mxCell>
        <mxCell id="MV2tPDvPNBY6R5nugIcb-96" value="F" style="edgeLabel;html=1;align=center;verticalAlign=middle;resizable=0;points=[];" parent="MV2tPDvPNBY6R5nugIcb-95" vertex="1" connectable="0">
          <mxGeometry x="-0.1125" relative="1" as="geometry">
            <mxPoint as="offset" />
          </mxGeometry>
        </mxCell>
        <mxCell id="MV2tPDvPNBY6R5nugIcb-97" value="appMatters = 1" style="ellipse;whiteSpace=wrap;html=1;" parent="1" vertex="1">
          <mxGeometry x="1829" y="420" width="90" height="50" as="geometry" />
        </mxCell>
        <mxCell id="MV2tPDvPNBY6R5nugIcb-98" value="" style="endArrow=classic;html=1;rounded=0;entryX=0.726;entryY=0.027;entryDx=0;entryDy=0;entryPerimeter=0;exitX=0;exitY=1;exitDx=0;exitDy=0;" parent="1" source="MV2tPDvPNBY6R5nugIcb-146" target="MV2tPDvPNBY6R5nugIcb-97" edge="1">
          <mxGeometry width="50" height="50" relative="1" as="geometry">
            <mxPoint x="1960" y="300" as="sourcePoint" />
            <mxPoint x="1570" y="240" as="targetPoint" />
          </mxGeometry>
        </mxCell>
        <mxCell id="MV2tPDvPNBY6R5nugIcb-99" value="T" style="edgeLabel;html=1;align=center;verticalAlign=middle;resizable=0;points=[];" parent="MV2tPDvPNBY6R5nugIcb-98" vertex="1" connectable="0">
          <mxGeometry x="-0.0389" y="-1" relative="1" as="geometry">
            <mxPoint as="offset" />
          </mxGeometry>
        </mxCell>
        <mxCell id="MV2tPDvPNBY6R5nugIcb-100" value="" style="endArrow=classic;html=1;rounded=0;exitX=1;exitY=1;exitDx=0;exitDy=0;entryX=0.5;entryY=0;entryDx=0;entryDy=0;" parent="1" source="MV2tPDvPNBY6R5nugIcb-148" target="MV2tPDvPNBY6R5nugIcb-156" edge="1">
          <mxGeometry width="50" height="50" relative="1" as="geometry">
            <mxPoint x="2260" y="310" as="sourcePoint" />
            <mxPoint x="2065" y="223" as="targetPoint" />
          </mxGeometry>
        </mxCell>
        <mxCell id="MV2tPDvPNBY6R5nugIcb-101" value="F" style="edgeLabel;html=1;align=center;verticalAlign=middle;resizable=0;points=[];" parent="MV2tPDvPNBY6R5nugIcb-100" vertex="1" connectable="0">
          <mxGeometry x="-0.1125" relative="1" as="geometry">
            <mxPoint as="offset" />
          </mxGeometry>
        </mxCell>
        <mxCell id="MV2tPDvPNBY6R5nugIcb-102" value="appMatters = 2" style="ellipse;whiteSpace=wrap;html=1;" parent="1" vertex="1">
          <mxGeometry x="2023" y="620" width="90" height="50" as="geometry" />
        </mxCell>
        <mxCell id="MV2tPDvPNBY6R5nugIcb-103" value="ERROR" style="ellipse;whiteSpace=wrap;html=1;" parent="1" vertex="1">
          <mxGeometry x="2500" y="620" width="110" height="50" as="geometry" />
        </mxCell>
        <mxCell id="MV2tPDvPNBY6R5nugIcb-104" value="" style="endArrow=classic;html=1;rounded=0;entryX=0.696;entryY=0.053;entryDx=0;entryDy=0;entryPerimeter=0;exitX=0.389;exitY=0.9;exitDx=0;exitDy=0;exitPerimeter=0;" parent="1" source="MV2tPDvPNBY6R5nugIcb-154" target="MV2tPDvPNBY6R5nugIcb-102" edge="1">
          <mxGeometry width="50" height="50" relative="1" as="geometry">
            <mxPoint x="2180" y="550" as="sourcePoint" />
            <mxPoint x="1925" y="361" as="targetPoint" />
          </mxGeometry>
        </mxCell>
        <mxCell id="MV2tPDvPNBY6R5nugIcb-105" value="T" style="edgeLabel;html=1;align=center;verticalAlign=middle;resizable=0;points=[];" parent="MV2tPDvPNBY6R5nugIcb-104" vertex="1" connectable="0">
          <mxGeometry x="-0.0389" y="-1" relative="1" as="geometry">
            <mxPoint as="offset" />
          </mxGeometry>
        </mxCell>
        <mxCell id="MV2tPDvPNBY6R5nugIcb-106" value="" style="endArrow=classic;html=1;rounded=0;entryX=0.5;entryY=0;entryDx=0;entryDy=0;exitX=1;exitY=1;exitDx=0;exitDy=0;" parent="1" source="MV2tPDvPNBY6R5nugIcb-156" target="MV2tPDvPNBY6R5nugIcb-103" edge="1">
          <mxGeometry width="50" height="50" relative="1" as="geometry">
            <mxPoint x="2460" y="560" as="sourcePoint" />
            <mxPoint x="2337" y="347" as="targetPoint" />
          </mxGeometry>
        </mxCell>
        <mxCell id="MV2tPDvPNBY6R5nugIcb-107" value="F" style="edgeLabel;html=1;align=center;verticalAlign=middle;resizable=0;points=[];" parent="MV2tPDvPNBY6R5nugIcb-106" vertex="1" connectable="0">
          <mxGeometry x="-0.1125" relative="1" as="geometry">
            <mxPoint as="offset" />
          </mxGeometry>
        </mxCell>
        <mxCell id="MV2tPDvPNBY6R5nugIcb-108" value="" style="endArrow=classic;html=1;rounded=0;exitX=0.5;exitY=1;exitDx=0;exitDy=0;entryX=0.324;entryY=-0.013;entryDx=0;entryDy=0;entryPerimeter=0;" parent="1" source="MV2tPDvPNBY6R5nugIcb-90" target="MV2tPDvPNBY6R5nugIcb-112" edge="1">
          <mxGeometry width="50" height="50" relative="1" as="geometry">
            <mxPoint x="1550" y="260" as="sourcePoint" />
            <mxPoint x="1550" y="310" as="targetPoint" />
          </mxGeometry>
        </mxCell>
        <mxCell id="MV2tPDvPNBY6R5nugIcb-109" value="" style="endArrow=classic;html=1;rounded=0;exitX=1;exitY=1;exitDx=0;exitDy=0;entryX=0;entryY=0;entryDx=0;entryDy=0;" parent="1" source="MV2tPDvPNBY6R5nugIcb-89" target="MV2tPDvPNBY6R5nugIcb-112" edge="1">
          <mxGeometry width="50" height="50" relative="1" as="geometry">
            <mxPoint x="1794" y="585" as="sourcePoint" />
            <mxPoint x="1926" y="746" as="targetPoint" />
          </mxGeometry>
        </mxCell>
        <mxCell id="MV2tPDvPNBY6R5nugIcb-110" value="" style="endArrow=classic;html=1;rounded=0;exitX=0.5;exitY=1;exitDx=0;exitDy=0;entryX=0.636;entryY=-0.013;entryDx=0;entryDy=0;entryPerimeter=0;" parent="1" source="MV2tPDvPNBY6R5nugIcb-97" target="MV2tPDvPNBY6R5nugIcb-112" edge="1">
          <mxGeometry width="50" height="50" relative="1" as="geometry">
            <mxPoint x="1794" y="585" as="sourcePoint" />
            <mxPoint x="1926" y="746" as="targetPoint" />
          </mxGeometry>
        </mxCell>
        <mxCell id="MV2tPDvPNBY6R5nugIcb-111" value="" style="endArrow=classic;html=1;rounded=0;exitX=0;exitY=1;exitDx=0;exitDy=0;entryX=1;entryY=0;entryDx=0;entryDy=0;" parent="1" source="MV2tPDvPNBY6R5nugIcb-102" target="MV2tPDvPNBY6R5nugIcb-112" edge="1">
          <mxGeometry width="50" height="50" relative="1" as="geometry">
            <mxPoint x="1905" y="410" as="sourcePoint" />
            <mxPoint x="1950" y="730" as="targetPoint" />
          </mxGeometry>
        </mxCell>
        <mxCell id="MV2tPDvPNBY6R5nugIcb-112" value="userId == complainantId ?" style="ellipse;whiteSpace=wrap;html=1;" parent="1" vertex="1">
          <mxGeometry x="1820" y="720" width="150" height="50" as="geometry" />
        </mxCell>
        <mxCell id="MV2tPDvPNBY6R5nugIcb-113" value="appContent == null ?" style="ellipse;whiteSpace=wrap;html=1;" parent="1" vertex="1">
          <mxGeometry x="1970" y="830" width="130" height="50" as="geometry" />
        </mxCell>
        <mxCell id="MV2tPDvPNBY6R5nugIcb-114" value="ERROR" style="ellipse;whiteSpace=wrap;html=1;" parent="1" vertex="1">
          <mxGeometry x="1695" y="830" width="110" height="50" as="geometry" />
        </mxCell>
        <mxCell id="MV2tPDvPNBY6R5nugIcb-115" value="" style="endArrow=classic;html=1;rounded=0;exitX=0.267;exitY=0.973;exitDx=0;exitDy=0;entryX=0.718;entryY=0.013;entryDx=0;entryDy=0;entryPerimeter=0;exitPerimeter=0;" parent="1" source="MV2tPDvPNBY6R5nugIcb-112" target="MV2tPDvPNBY6R5nugIcb-114" edge="1">
          <mxGeometry width="50" height="50" relative="1" as="geometry">
            <mxPoint x="1623" y="459" as="sourcePoint" />
            <mxPoint x="1529" y="539" as="targetPoint" />
          </mxGeometry>
        </mxCell>
        <mxCell id="MV2tPDvPNBY6R5nugIcb-116" value="T" style="edgeLabel;html=1;align=center;verticalAlign=middle;resizable=0;points=[];" parent="MV2tPDvPNBY6R5nugIcb-115" vertex="1" connectable="0">
          <mxGeometry x="-0.1193" y="1" relative="1" as="geometry">
            <mxPoint as="offset" />
          </mxGeometry>
        </mxCell>
        <mxCell id="MV2tPDvPNBY6R5nugIcb-117" value="" style="endArrow=classic;html=1;rounded=0;exitX=1;exitY=1;exitDx=0;exitDy=0;entryX=0.364;entryY=-0.04;entryDx=0;entryDy=0;entryPerimeter=0;" parent="1" source="MV2tPDvPNBY6R5nugIcb-112" target="MV2tPDvPNBY6R5nugIcb-113" edge="1">
          <mxGeometry width="50" height="50" relative="1" as="geometry">
            <mxPoint x="1537" y="578" as="sourcePoint" />
            <mxPoint x="1852" y="737" as="targetPoint" />
          </mxGeometry>
        </mxCell>
        <mxCell id="MV2tPDvPNBY6R5nugIcb-118" value="F" style="edgeLabel;html=1;align=center;verticalAlign=middle;resizable=0;points=[];" parent="MV2tPDvPNBY6R5nugIcb-117" vertex="1" connectable="0">
          <mxGeometry x="-0.0854" y="-2" relative="1" as="geometry">
            <mxPoint y="-1" as="offset" />
          </mxGeometry>
        </mxCell>
        <mxCell id="MV2tPDvPNBY6R5nugIcb-119" value="ERROR" style="ellipse;whiteSpace=wrap;html=1;" parent="1" vertex="1">
          <mxGeometry x="1840" y="930" width="110" height="50" as="geometry" />
        </mxCell>
        <mxCell id="MV2tPDvPNBY6R5nugIcb-120" value="appContent.length &amp;gt; 1024 ?" style="ellipse;whiteSpace=wrap;html=1;" parent="1" vertex="1">
          <mxGeometry x="2080" y="930" width="160" height="50" as="geometry" />
        </mxCell>
        <mxCell id="MV2tPDvPNBY6R5nugIcb-121" value="" style="endArrow=classic;html=1;rounded=0;exitX=0.246;exitY=0.973;exitDx=0;exitDy=0;entryX=0.782;entryY=0.027;entryDx=0;entryDy=0;entryPerimeter=0;exitPerimeter=0;" parent="1" source="MV2tPDvPNBY6R5nugIcb-113" target="MV2tPDvPNBY6R5nugIcb-119" edge="1">
          <mxGeometry width="50" height="50" relative="1" as="geometry">
            <mxPoint x="1870" y="779" as="sourcePoint" />
            <mxPoint x="1784" y="841" as="targetPoint" />
          </mxGeometry>
        </mxCell>
        <mxCell id="MV2tPDvPNBY6R5nugIcb-122" value="T" style="edgeLabel;html=1;align=center;verticalAlign=middle;resizable=0;points=[];" parent="MV2tPDvPNBY6R5nugIcb-121" vertex="1" connectable="0">
          <mxGeometry x="-0.1193" y="1" relative="1" as="geometry">
            <mxPoint as="offset" />
          </mxGeometry>
        </mxCell>
        <mxCell id="MV2tPDvPNBY6R5nugIcb-123" value="" style="endArrow=classic;html=1;rounded=0;exitX=0.779;exitY=0.893;exitDx=0;exitDy=0;entryX=0.325;entryY=-0.013;entryDx=0;entryDy=0;entryPerimeter=0;exitPerimeter=0;" parent="1" source="MV2tPDvPNBY6R5nugIcb-113" target="MV2tPDvPNBY6R5nugIcb-120" edge="1">
          <mxGeometry width="50" height="50" relative="1" as="geometry">
            <mxPoint x="1958" y="773" as="sourcePoint" />
            <mxPoint x="2027" y="838" as="targetPoint" />
          </mxGeometry>
        </mxCell>
        <mxCell id="MV2tPDvPNBY6R5nugIcb-124" value="F" style="edgeLabel;html=1;align=center;verticalAlign=middle;resizable=0;points=[];" parent="MV2tPDvPNBY6R5nugIcb-123" vertex="1" connectable="0">
          <mxGeometry x="-0.0854" y="-2" relative="1" as="geometry">
            <mxPoint y="-1" as="offset" />
          </mxGeometry>
        </mxCell>
        <mxCell id="MV2tPDvPNBY6R5nugIcb-125" value="ERROR" style="ellipse;whiteSpace=wrap;html=1;" parent="1" vertex="1">
          <mxGeometry x="1930" y="1060" width="110" height="50" as="geometry" />
        </mxCell>
        <mxCell id="MV2tPDvPNBY6R5nugIcb-126" value="" style="endArrow=classic;html=1;rounded=0;exitX=0.25;exitY=0.973;exitDx=0;exitDy=0;entryX=0.8;entryY=0.067;entryDx=0;entryDy=0;entryPerimeter=0;exitPerimeter=0;" parent="1" source="MV2tPDvPNBY6R5nugIcb-120" target="MV2tPDvPNBY6R5nugIcb-125" edge="1">
          <mxGeometry width="50" height="50" relative="1" as="geometry">
            <mxPoint x="2012" y="889" as="sourcePoint" />
            <mxPoint x="1936" y="941" as="targetPoint" />
          </mxGeometry>
        </mxCell>
        <mxCell id="MV2tPDvPNBY6R5nugIcb-127" value="T" style="edgeLabel;html=1;align=center;verticalAlign=middle;resizable=0;points=[];" parent="MV2tPDvPNBY6R5nugIcb-126" vertex="1" connectable="0">
          <mxGeometry x="-0.1193" y="1" relative="1" as="geometry">
            <mxPoint as="offset" />
          </mxGeometry>
        </mxCell>
        <mxCell id="MV2tPDvPNBY6R5nugIcb-128" value="" style="endArrow=classic;html=1;rounded=0;exitX=0.721;exitY=1.013;exitDx=0;exitDy=0;exitPerimeter=0;" parent="1" source="MV2tPDvPNBY6R5nugIcb-120" edge="1">
          <mxGeometry width="50" height="50" relative="1" as="geometry">
            <mxPoint x="2081" y="885" as="sourcePoint" />
            <mxPoint x="2280" y="1060" as="targetPoint" />
          </mxGeometry>
        </mxCell>
        <mxCell id="MV2tPDvPNBY6R5nugIcb-129" value="F" style="edgeLabel;html=1;align=center;verticalAlign=middle;resizable=0;points=[];" parent="MV2tPDvPNBY6R5nugIcb-128" vertex="1" connectable="0">
          <mxGeometry x="-0.0854" y="-2" relative="1" as="geometry">
            <mxPoint y="-1" as="offset" />
          </mxGeometry>
        </mxCell>
        <mxCell id="MV2tPDvPNBY6R5nugIcb-130" value="" style="ellipse;whiteSpace=wrap;html=1;aspect=fixed;" parent="1" vertex="1">
          <mxGeometry x="2270" y="1060" width="40" height="40" as="geometry" />
        </mxCell>
        <mxCell id="MV2tPDvPNBY6R5nugIcb-136" value="" style="swimlane;startSize=0;" parent="1" vertex="1">
          <mxGeometry x="1555" y="-55" width="395" height="195" as="geometry" />
        </mxCell>
        <mxCell id="MV2tPDvPNBY6R5nugIcb-135" value="actId == null ?" style="ellipse;whiteSpace=wrap;html=1;" parent="MV2tPDvPNBY6R5nugIcb-136" vertex="1">
          <mxGeometry x="25" y="135" width="90" height="50" as="geometry" />
        </mxCell>
        <mxCell id="MV2tPDvPNBY6R5nugIcb-134" value="cmtId == null ?" style="ellipse;whiteSpace=wrap;html=1;" parent="MV2tPDvPNBY6R5nugIcb-136" vertex="1">
          <mxGeometry x="99" y="72.5" width="90" height="50" as="geometry" />
        </mxCell>
        <mxCell id="MV2tPDvPNBY6R5nugIcb-133" value="userId != null ?" style="ellipse;whiteSpace=wrap;html=1;" parent="MV2tPDvPNBY6R5nugIcb-136" vertex="1">
          <mxGeometry x="189" y="5" width="90" height="50" as="geometry" />
        </mxCell>
        <mxCell id="MV2tPDvPNBY6R5nugIcb-141" value="" style="endArrow=classic;html=1;rounded=0;exitX=0.23;exitY=0.95;exitDx=0;exitDy=0;exitPerimeter=0;" parent="MV2tPDvPNBY6R5nugIcb-136" source="MV2tPDvPNBY6R5nugIcb-134" target="MV2tPDvPNBY6R5nugIcb-135" edge="1">
          <mxGeometry width="50" height="50" relative="1" as="geometry">
            <mxPoint x="86" y="195" as="sourcePoint" />
            <mxPoint x="15" y="295" as="targetPoint" />
          </mxGeometry>
        </mxCell>
        <mxCell id="MV2tPDvPNBY6R5nugIcb-142" value="T" style="edgeLabel;html=1;align=center;verticalAlign=middle;resizable=0;points=[];" parent="MV2tPDvPNBY6R5nugIcb-141" vertex="1" connectable="0">
          <mxGeometry x="-0.0389" y="-1" relative="1" as="geometry">
            <mxPoint as="offset" />
          </mxGeometry>
        </mxCell>
        <mxCell id="MV2tPDvPNBY6R5nugIcb-143" value="" style="endArrow=classic;html=1;rounded=0;exitX=0;exitY=1;exitDx=0;exitDy=0;entryX=0.778;entryY=0.057;entryDx=0;entryDy=0;entryPerimeter=0;" parent="MV2tPDvPNBY6R5nugIcb-136" source="MV2tPDvPNBY6R5nugIcb-133" target="MV2tPDvPNBY6R5nugIcb-134" edge="1">
          <mxGeometry width="50" height="50" relative="1" as="geometry">
            <mxPoint x="146" y="130" as="sourcePoint" />
            <mxPoint x="124" y="149" as="targetPoint" />
          </mxGeometry>
        </mxCell>
        <mxCell id="MV2tPDvPNBY6R5nugIcb-144" value="T" style="edgeLabel;html=1;align=center;verticalAlign=middle;resizable=0;points=[];" parent="MV2tPDvPNBY6R5nugIcb-143" vertex="1" connectable="0">
          <mxGeometry x="-0.0389" y="-1" relative="1" as="geometry">
            <mxPoint as="offset" />
          </mxGeometry>
        </mxCell>
        <mxCell id="MV2tPDvPNBY6R5nugIcb-137" value="" style="endArrow=classic;html=1;rounded=0;exitX=1;exitY=1;exitDx=0;exitDy=0;entryX=0.078;entryY=0.14;entryDx=0;entryDy=0;entryPerimeter=0;" parent="1" source="MV2tPDvPNBY6R5nugIcb-134" target="MV2tPDvPNBY6R5nugIcb-148" edge="1">
          <mxGeometry width="50" height="50" relative="1" as="geometry">
            <mxPoint x="1700" y="126" as="sourcePoint" />
            <mxPoint x="2010" y="160" as="targetPoint" />
          </mxGeometry>
        </mxCell>
        <mxCell id="MV2tPDvPNBY6R5nugIcb-138" value="F" style="edgeLabel;html=1;align=center;verticalAlign=middle;resizable=0;points=[];" parent="MV2tPDvPNBY6R5nugIcb-137" vertex="1" connectable="0">
          <mxGeometry x="-0.1125" relative="1" as="geometry">
            <mxPoint as="offset" />
          </mxGeometry>
        </mxCell>
        <mxCell id="MV2tPDvPNBY6R5nugIcb-139" value="" style="endArrow=classic;html=1;rounded=0;exitX=1;exitY=1;exitDx=0;exitDy=0;entryX=0.5;entryY=0;entryDx=0;entryDy=0;" parent="1" source="MV2tPDvPNBY6R5nugIcb-133" target="MV2tPDvPNBY6R5nugIcb-148" edge="1">
          <mxGeometry width="50" height="50" relative="1" as="geometry">
            <mxPoint x="1757" y="70" as="sourcePoint" />
            <mxPoint x="2040" y="140" as="targetPoint" />
          </mxGeometry>
        </mxCell>
        <mxCell id="MV2tPDvPNBY6R5nugIcb-140" value="F" style="edgeLabel;html=1;align=center;verticalAlign=middle;resizable=0;points=[];" parent="MV2tPDvPNBY6R5nugIcb-139" vertex="1" connectable="0">
          <mxGeometry x="-0.1125" relative="1" as="geometry">
            <mxPoint as="offset" />
          </mxGeometry>
        </mxCell>
        <mxCell id="MV2tPDvPNBY6R5nugIcb-145" value="" style="swimlane;startSize=0;" parent="1" vertex="1">
          <mxGeometry x="1940" y="155" width="395" height="195" as="geometry" />
        </mxCell>
        <mxCell id="MV2tPDvPNBY6R5nugIcb-146" value="actId == null ?" style="ellipse;whiteSpace=wrap;html=1;" parent="MV2tPDvPNBY6R5nugIcb-145" vertex="1">
          <mxGeometry x="25" y="135" width="90" height="50" as="geometry" />
        </mxCell>
        <mxCell id="MV2tPDvPNBY6R5nugIcb-147" value="cmtId != null ?" style="ellipse;whiteSpace=wrap;html=1;" parent="MV2tPDvPNBY6R5nugIcb-145" vertex="1">
          <mxGeometry x="99" y="72.5" width="90" height="50" as="geometry" />
        </mxCell>
        <mxCell id="MV2tPDvPNBY6R5nugIcb-148" value="userId == null ?" style="ellipse;whiteSpace=wrap;html=1;" parent="MV2tPDvPNBY6R5nugIcb-145" vertex="1">
          <mxGeometry x="189" y="5" width="90" height="50" as="geometry" />
        </mxCell>
        <mxCell id="MV2tPDvPNBY6R5nugIcb-149" value="" style="endArrow=classic;html=1;rounded=0;exitX=0.23;exitY=0.95;exitDx=0;exitDy=0;exitPerimeter=0;" parent="MV2tPDvPNBY6R5nugIcb-145" source="MV2tPDvPNBY6R5nugIcb-147" target="MV2tPDvPNBY6R5nugIcb-146" edge="1">
          <mxGeometry width="50" height="50" relative="1" as="geometry">
            <mxPoint x="86" y="195" as="sourcePoint" />
            <mxPoint x="15" y="295" as="targetPoint" />
          </mxGeometry>
        </mxCell>
        <mxCell id="MV2tPDvPNBY6R5nugIcb-150" value="T" style="edgeLabel;html=1;align=center;verticalAlign=middle;resizable=0;points=[];" parent="MV2tPDvPNBY6R5nugIcb-149" vertex="1" connectable="0">
          <mxGeometry x="-0.0389" y="-1" relative="1" as="geometry">
            <mxPoint as="offset" />
          </mxGeometry>
        </mxCell>
        <mxCell id="MV2tPDvPNBY6R5nugIcb-151" value="" style="endArrow=classic;html=1;rounded=0;exitX=0;exitY=1;exitDx=0;exitDy=0;entryX=0.778;entryY=0.057;entryDx=0;entryDy=0;entryPerimeter=0;" parent="MV2tPDvPNBY6R5nugIcb-145" source="MV2tPDvPNBY6R5nugIcb-148" target="MV2tPDvPNBY6R5nugIcb-147" edge="1">
          <mxGeometry width="50" height="50" relative="1" as="geometry">
            <mxPoint x="146" y="130" as="sourcePoint" />
            <mxPoint x="124" y="149" as="targetPoint" />
          </mxGeometry>
        </mxCell>
        <mxCell id="MV2tPDvPNBY6R5nugIcb-152" value="T" style="edgeLabel;html=1;align=center;verticalAlign=middle;resizable=0;points=[];" parent="MV2tPDvPNBY6R5nugIcb-151" vertex="1" connectable="0">
          <mxGeometry x="-0.0389" y="-1" relative="1" as="geometry">
            <mxPoint as="offset" />
          </mxGeometry>
        </mxCell>
        <mxCell id="MV2tPDvPNBY6R5nugIcb-153" value="" style="swimlane;startSize=0;" parent="1" vertex="1">
          <mxGeometry x="2130" y="360" width="395" height="195" as="geometry" />
        </mxCell>
        <mxCell id="MV2tPDvPNBY6R5nugIcb-154" value="actId != null ?" style="ellipse;whiteSpace=wrap;html=1;" parent="MV2tPDvPNBY6R5nugIcb-153" vertex="1">
          <mxGeometry x="25" y="135" width="90" height="50" as="geometry" />
        </mxCell>
        <mxCell id="MV2tPDvPNBY6R5nugIcb-155" value="cmtId == null ?" style="ellipse;whiteSpace=wrap;html=1;" parent="MV2tPDvPNBY6R5nugIcb-153" vertex="1">
          <mxGeometry x="99" y="72.5" width="90" height="50" as="geometry" />
        </mxCell>
        <mxCell id="MV2tPDvPNBY6R5nugIcb-156" value="userId == null ?" style="ellipse;whiteSpace=wrap;html=1;" parent="MV2tPDvPNBY6R5nugIcb-153" vertex="1">
          <mxGeometry x="189" y="5" width="90" height="50" as="geometry" />
        </mxCell>
        <mxCell id="MV2tPDvPNBY6R5nugIcb-157" value="" style="endArrow=classic;html=1;rounded=0;exitX=0.23;exitY=0.95;exitDx=0;exitDy=0;exitPerimeter=0;" parent="MV2tPDvPNBY6R5nugIcb-153" source="MV2tPDvPNBY6R5nugIcb-155" target="MV2tPDvPNBY6R5nugIcb-154" edge="1">
          <mxGeometry width="50" height="50" relative="1" as="geometry">
            <mxPoint x="86" y="195" as="sourcePoint" />
            <mxPoint x="15" y="295" as="targetPoint" />
          </mxGeometry>
        </mxCell>
        <mxCell id="MV2tPDvPNBY6R5nugIcb-158" value="T" style="edgeLabel;html=1;align=center;verticalAlign=middle;resizable=0;points=[];" parent="MV2tPDvPNBY6R5nugIcb-157" vertex="1" connectable="0">
          <mxGeometry x="-0.0389" y="-1" relative="1" as="geometry">
            <mxPoint as="offset" />
          </mxGeometry>
        </mxCell>
        <mxCell id="MV2tPDvPNBY6R5nugIcb-159" value="" style="endArrow=classic;html=1;rounded=0;exitX=0;exitY=1;exitDx=0;exitDy=0;entryX=0.778;entryY=0.057;entryDx=0;entryDy=0;entryPerimeter=0;" parent="MV2tPDvPNBY6R5nugIcb-153" source="MV2tPDvPNBY6R5nugIcb-156" target="MV2tPDvPNBY6R5nugIcb-155" edge="1">
          <mxGeometry width="50" height="50" relative="1" as="geometry">
            <mxPoint x="146" y="130" as="sourcePoint" />
            <mxPoint x="124" y="149" as="targetPoint" />
          </mxGeometry>
        </mxCell>
        <mxCell id="MV2tPDvPNBY6R5nugIcb-160" value="T" style="edgeLabel;html=1;align=center;verticalAlign=middle;resizable=0;points=[];" parent="MV2tPDvPNBY6R5nugIcb-159" vertex="1" connectable="0">
          <mxGeometry x="-0.0389" y="-1" relative="1" as="geometry">
            <mxPoint as="offset" />
          </mxGeometry>
        </mxCell>
        <mxCell id="MV2tPDvPNBY6R5nugIcb-161" value="" style="endArrow=classic;html=1;rounded=0;exitX=0.944;exitY=0.737;exitDx=0;exitDy=0;entryX=0;entryY=0;entryDx=0;entryDy=0;exitPerimeter=0;" parent="1" source="MV2tPDvPNBY6R5nugIcb-147" target="MV2tPDvPNBY6R5nugIcb-156" edge="1">
          <mxGeometry width="50" height="50" relative="1" as="geometry">
            <mxPoint x="2216" y="213" as="sourcePoint" />
            <mxPoint x="2374" y="375" as="targetPoint" />
          </mxGeometry>
        </mxCell>
        <mxCell id="MV2tPDvPNBY6R5nugIcb-162" value="F" style="edgeLabel;html=1;align=center;verticalAlign=middle;resizable=0;points=[];" parent="MV2tPDvPNBY6R5nugIcb-161" vertex="1" connectable="0">
          <mxGeometry x="-0.1125" relative="1" as="geometry">
            <mxPoint as="offset" />
          </mxGeometry>
        </mxCell>
        <mxCell id="MV2tPDvPNBY6R5nugIcb-163" value="" style="endArrow=classic;html=1;rounded=0;exitX=0.967;exitY=0.727;exitDx=0;exitDy=0;entryX=0;entryY=0.5;entryDx=0;entryDy=0;exitPerimeter=0;" parent="1" source="MV2tPDvPNBY6R5nugIcb-146" target="MV2tPDvPNBY6R5nugIcb-156" edge="1">
          <mxGeometry width="50" height="50" relative="1" as="geometry">
            <mxPoint x="2134" y="274" as="sourcePoint" />
            <mxPoint x="2342" y="382" as="targetPoint" />
          </mxGeometry>
        </mxCell>
        <mxCell id="MV2tPDvPNBY6R5nugIcb-164" value="F" style="edgeLabel;html=1;align=center;verticalAlign=middle;resizable=0;points=[];" parent="MV2tPDvPNBY6R5nugIcb-163" vertex="1" connectable="0">
          <mxGeometry x="-0.1125" relative="1" as="geometry">
            <mxPoint as="offset" />
          </mxGeometry>
        </mxCell>
        <mxCell id="MV2tPDvPNBY6R5nugIcb-165" value="" style="endArrow=classic;html=1;rounded=0;entryX=0.23;entryY=0.06;entryDx=0;entryDy=0;exitX=1;exitY=1;exitDx=0;exitDy=0;entryPerimeter=0;" parent="1" source="MV2tPDvPNBY6R5nugIcb-155" target="MV2tPDvPNBY6R5nugIcb-103" edge="1">
          <mxGeometry width="50" height="50" relative="1" as="geometry">
            <mxPoint x="2470" y="570" as="sourcePoint" />
            <mxPoint x="2565" y="630" as="targetPoint" />
          </mxGeometry>
        </mxCell>
        <mxCell id="MV2tPDvPNBY6R5nugIcb-166" value="F" style="edgeLabel;html=1;align=center;verticalAlign=middle;resizable=0;points=[];" parent="MV2tPDvPNBY6R5nugIcb-165" vertex="1" connectable="0">
          <mxGeometry x="-0.1125" relative="1" as="geometry">
            <mxPoint as="offset" />
          </mxGeometry>
        </mxCell>
        <mxCell id="MV2tPDvPNBY6R5nugIcb-167" value="" style="endArrow=classic;html=1;rounded=0;entryX=0;entryY=0.5;entryDx=0;entryDy=0;exitX=0.944;exitY=0.733;exitDx=0;exitDy=0;exitPerimeter=0;" parent="1" source="MV2tPDvPNBY6R5nugIcb-154" target="MV2tPDvPNBY6R5nugIcb-103" edge="1">
          <mxGeometry width="50" height="50" relative="1" as="geometry">
            <mxPoint x="2480" y="580" as="sourcePoint" />
            <mxPoint x="2575" y="640" as="targetPoint" />
          </mxGeometry>
        </mxCell>
        <mxCell id="MV2tPDvPNBY6R5nugIcb-168" value="F" style="edgeLabel;html=1;align=center;verticalAlign=middle;resizable=0;points=[];" parent="MV2tPDvPNBY6R5nugIcb-167" vertex="1" connectable="0">
          <mxGeometry x="-0.1125" relative="1" as="geometry">
            <mxPoint as="offset" />
          </mxGeometry>
        </mxCell>
        <mxCell id="MV2tPDvPNBY6R5nugIcb-171" value="userId != null &amp;amp;&amp;amp; cmtId == null &amp;amp;&amp;amp; actId == null ?" style="ellipse;whiteSpace=wrap;html=1;" parent="1" vertex="1">
          <mxGeometry x="210" y="90" width="340" height="70" as="geometry" />
        </mxCell>
        <mxCell id="MV2tPDvPNBY6R5nugIcb-172" value="" style="edgeStyle=orthogonalEdgeStyle;rounded=0;orthogonalLoop=1;jettySize=auto;html=1;" parent="1" source="MV2tPDvPNBY6R5nugIcb-173" target="MV2tPDvPNBY6R5nugIcb-171" edge="1">
          <mxGeometry relative="1" as="geometry" />
        </mxCell>
        <mxCell id="MV2tPDvPNBY6R5nugIcb-173" value="" style="ellipse;whiteSpace=wrap;html=1;aspect=fixed;" parent="1" vertex="1">
          <mxGeometry x="360" y="10" width="40" height="40" as="geometry" />
        </mxCell>
        <mxCell id="MV2tPDvPNBY6R5nugIcb-174" value="user == null ?" style="ellipse;whiteSpace=wrap;html=1;" parent="1" vertex="1">
          <mxGeometry x="125" y="310" width="90" height="50" as="geometry" />
        </mxCell>
        <mxCell id="MV2tPDvPNBY6R5nugIcb-175" value="ERROR: USER NOT FOUND" style="ellipse;whiteSpace=wrap;html=1;" parent="1" vertex="1">
          <mxGeometry x="-20" y="420" width="110" height="50" as="geometry" />
        </mxCell>
        <mxCell id="MV2tPDvPNBY6R5nugIcb-176" value="userId == null &amp;amp;&amp;amp; cmtId != null &amp;amp;&amp;amp; actId == null ?" style="ellipse;whiteSpace=wrap;html=1;" parent="1" vertex="1">
          <mxGeometry x="580" y="220" width="340" height="70" as="geometry" />
        </mxCell>
        <mxCell id="MV2tPDvPNBY6R5nugIcb-177" value="userId == null &amp;amp;&amp;amp; cmtId == null &amp;amp;&amp;amp; actId != null ?" style="ellipse;whiteSpace=wrap;html=1;" parent="1" vertex="1">
          <mxGeometry x="800" y="350" width="340" height="70" as="geometry" />
        </mxCell>
        <mxCell id="MV2tPDvPNBY6R5nugIcb-178" value="" style="ellipse;whiteSpace=wrap;html=1;aspect=fixed;" parent="1" vertex="1">
          <mxGeometry x="150" y="220" width="40" height="40" as="geometry" />
        </mxCell>
        <mxCell id="MV2tPDvPNBY6R5nugIcb-179" value="" style="endArrow=classic;html=1;rounded=0;exitX=0;exitY=1;exitDx=0;exitDy=0;entryX=1;entryY=0.5;entryDx=0;entryDy=0;" parent="1" source="MV2tPDvPNBY6R5nugIcb-171" target="MV2tPDvPNBY6R5nugIcb-178" edge="1">
          <mxGeometry width="50" height="50" relative="1" as="geometry">
            <mxPoint x="220" y="340" as="sourcePoint" />
            <mxPoint x="270" y="290" as="targetPoint" />
          </mxGeometry>
        </mxCell>
        <mxCell id="MV2tPDvPNBY6R5nugIcb-180" value="T" style="edgeLabel;html=1;align=center;verticalAlign=middle;resizable=0;points=[];" parent="MV2tPDvPNBY6R5nugIcb-179" vertex="1" connectable="0">
          <mxGeometry x="-0.0389" y="-1" relative="1" as="geometry">
            <mxPoint as="offset" />
          </mxGeometry>
        </mxCell>
        <mxCell id="MV2tPDvPNBY6R5nugIcb-181" value="" style="endArrow=classic;html=1;rounded=0;exitX=0.5;exitY=1;exitDx=0;exitDy=0;entryX=0.5;entryY=0;entryDx=0;entryDy=0;" parent="1" source="MV2tPDvPNBY6R5nugIcb-178" target="MV2tPDvPNBY6R5nugIcb-174" edge="1">
          <mxGeometry width="50" height="50" relative="1" as="geometry">
            <mxPoint x="270" y="160" as="sourcePoint" />
            <mxPoint x="200" y="250" as="targetPoint" />
          </mxGeometry>
        </mxCell>
        <mxCell id="MV2tPDvPNBY6R5nugIcb-182" value="user.role ?" style="ellipse;whiteSpace=wrap;html=1;" parent="1" vertex="1">
          <mxGeometry x="240" y="420" width="90" height="50" as="geometry" />
        </mxCell>
        <mxCell id="MV2tPDvPNBY6R5nugIcb-183" value="" style="endArrow=classic;html=1;rounded=0;exitX=0;exitY=1;exitDx=0;exitDy=0;entryX=0.715;entryY=0.08;entryDx=0;entryDy=0;entryPerimeter=0;" parent="1" source="MV2tPDvPNBY6R5nugIcb-174" target="MV2tPDvPNBY6R5nugIcb-175" edge="1">
          <mxGeometry width="50" height="50" relative="1" as="geometry">
            <mxPoint x="180" y="270" as="sourcePoint" />
            <mxPoint x="180" y="320" as="targetPoint" />
          </mxGeometry>
        </mxCell>
        <mxCell id="MV2tPDvPNBY6R5nugIcb-184" value="T" style="edgeLabel;html=1;align=center;verticalAlign=middle;resizable=0;points=[];" parent="MV2tPDvPNBY6R5nugIcb-183" vertex="1" connectable="0">
          <mxGeometry x="-0.0912" y="-1" relative="1" as="geometry">
            <mxPoint x="1" as="offset" />
          </mxGeometry>
        </mxCell>
        <mxCell id="MV2tPDvPNBY6R5nugIcb-185" value="" style="endArrow=classic;html=1;rounded=0;exitX=0.952;exitY=0.84;exitDx=0;exitDy=0;entryX=0.415;entryY=-0.067;entryDx=0;entryDy=0;entryPerimeter=0;exitPerimeter=0;" parent="1" source="MV2tPDvPNBY6R5nugIcb-174" target="MV2tPDvPNBY6R5nugIcb-182" edge="1">
          <mxGeometry width="50" height="50" relative="1" as="geometry">
            <mxPoint x="148" y="363" as="sourcePoint" />
            <mxPoint x="69" y="434" as="targetPoint" />
          </mxGeometry>
        </mxCell>
        <mxCell id="MV2tPDvPNBY6R5nugIcb-186" value="F" style="edgeLabel;html=1;align=center;verticalAlign=middle;resizable=0;points=[];" parent="MV2tPDvPNBY6R5nugIcb-185" vertex="1" connectable="0">
          <mxGeometry x="-0.1525" relative="1" as="geometry">
            <mxPoint y="1" as="offset" />
          </mxGeometry>
        </mxCell>
        <mxCell id="MV2tPDvPNBY6R5nugIcb-187" value="appMatters = 4" style="ellipse;whiteSpace=wrap;html=1;" parent="1" vertex="1">
          <mxGeometry x="80" y="535" width="90" height="50" as="geometry" />
        </mxCell>
        <mxCell id="MV2tPDvPNBY6R5nugIcb-188" value="appMatters = 3" style="ellipse;whiteSpace=wrap;html=1;" parent="1" vertex="1">
          <mxGeometry x="369" y="535" width="90" height="50" as="geometry" />
        </mxCell>
        <mxCell id="MV2tPDvPNBY6R5nugIcb-189" value="" style="endArrow=classic;html=1;rounded=0;exitX=0.037;exitY=0.787;exitDx=0;exitDy=0;entryX=0.77;entryY=0.087;entryDx=0;entryDy=0;entryPerimeter=0;exitPerimeter=0;" parent="1" source="MV2tPDvPNBY6R5nugIcb-182" target="MV2tPDvPNBY6R5nugIcb-187" edge="1">
          <mxGeometry width="50" height="50" relative="1" as="geometry">
            <mxPoint x="148" y="363" as="sourcePoint" />
            <mxPoint x="69" y="434" as="targetPoint" />
          </mxGeometry>
        </mxCell>
        <mxCell id="MV2tPDvPNBY6R5nugIcb-190" value="1" style="edgeLabel;html=1;align=center;verticalAlign=middle;resizable=0;points=[];" parent="MV2tPDvPNBY6R5nugIcb-189" vertex="1" connectable="0">
          <mxGeometry x="-0.1362" y="-2" relative="1" as="geometry">
            <mxPoint as="offset" />
          </mxGeometry>
        </mxCell>
        <mxCell id="MV2tPDvPNBY6R5nugIcb-191" value="" style="endArrow=classic;html=1;rounded=0;exitX=0.978;exitY=0.813;exitDx=0;exitDy=0;entryX=0.359;entryY=0.033;entryDx=0;entryDy=0;entryPerimeter=0;exitPerimeter=0;" parent="1" source="MV2tPDvPNBY6R5nugIcb-182" target="MV2tPDvPNBY6R5nugIcb-188" edge="1">
          <mxGeometry width="50" height="50" relative="1" as="geometry">
            <mxPoint x="253" y="469" as="sourcePoint" />
            <mxPoint x="159" y="549" as="targetPoint" />
          </mxGeometry>
        </mxCell>
        <mxCell id="MV2tPDvPNBY6R5nugIcb-192" value="2" style="edgeLabel;html=1;align=center;verticalAlign=middle;resizable=0;points=[];" parent="MV2tPDvPNBY6R5nugIcb-191" vertex="1" connectable="0">
          <mxGeometry x="-0.1069" relative="1" as="geometry">
            <mxPoint as="offset" />
          </mxGeometry>
        </mxCell>
        <mxCell id="MV2tPDvPNBY6R5nugIcb-193" value="" style="endArrow=classic;html=1;rounded=0;exitX=0.941;exitY=0.781;exitDx=0;exitDy=0;exitPerimeter=0;" parent="1" source="MV2tPDvPNBY6R5nugIcb-171" target="MV2tPDvPNBY6R5nugIcb-176" edge="1">
          <mxGeometry width="50" height="50" relative="1" as="geometry">
            <mxPoint x="270" y="160" as="sourcePoint" />
            <mxPoint x="200" y="250" as="targetPoint" />
          </mxGeometry>
        </mxCell>
        <mxCell id="MV2tPDvPNBY6R5nugIcb-194" value="F" style="edgeLabel;html=1;align=center;verticalAlign=middle;resizable=0;points=[];" parent="MV2tPDvPNBY6R5nugIcb-193" vertex="1" connectable="0">
          <mxGeometry x="-0.1125" relative="1" as="geometry">
            <mxPoint as="offset" />
          </mxGeometry>
        </mxCell>
        <mxCell id="MV2tPDvPNBY6R5nugIcb-195" value="appMatters = 1" style="ellipse;whiteSpace=wrap;html=1;" parent="1" vertex="1">
          <mxGeometry x="480" y="360" width="90" height="50" as="geometry" />
        </mxCell>
        <mxCell id="MV2tPDvPNBY6R5nugIcb-196" value="" style="endArrow=classic;html=1;rounded=0;exitX=0.243;exitY=0.933;exitDx=0;exitDy=0;entryX=0.726;entryY=0.027;entryDx=0;entryDy=0;exitPerimeter=0;entryPerimeter=0;" parent="1" source="MV2tPDvPNBY6R5nugIcb-176" target="MV2tPDvPNBY6R5nugIcb-195" edge="1">
          <mxGeometry width="50" height="50" relative="1" as="geometry">
            <mxPoint x="270" y="160" as="sourcePoint" />
            <mxPoint x="200" y="250" as="targetPoint" />
          </mxGeometry>
        </mxCell>
        <mxCell id="MV2tPDvPNBY6R5nugIcb-197" value="T" style="edgeLabel;html=1;align=center;verticalAlign=middle;resizable=0;points=[];" parent="MV2tPDvPNBY6R5nugIcb-196" vertex="1" connectable="0">
          <mxGeometry x="-0.0389" y="-1" relative="1" as="geometry">
            <mxPoint as="offset" />
          </mxGeometry>
        </mxCell>
        <mxCell id="MV2tPDvPNBY6R5nugIcb-198" value="" style="endArrow=classic;html=1;rounded=0;exitX=0.822;exitY=0.867;exitDx=0;exitDy=0;exitPerimeter=0;entryX=0.463;entryY=-0.038;entryDx=0;entryDy=0;entryPerimeter=0;" parent="1" source="MV2tPDvPNBY6R5nugIcb-176" target="MV2tPDvPNBY6R5nugIcb-177" edge="1">
          <mxGeometry width="50" height="50" relative="1" as="geometry">
            <mxPoint x="540" y="155" as="sourcePoint" />
            <mxPoint x="695" y="233" as="targetPoint" />
          </mxGeometry>
        </mxCell>
        <mxCell id="MV2tPDvPNBY6R5nugIcb-199" value="F" style="edgeLabel;html=1;align=center;verticalAlign=middle;resizable=0;points=[];" parent="MV2tPDvPNBY6R5nugIcb-198" vertex="1" connectable="0">
          <mxGeometry x="-0.1125" relative="1" as="geometry">
            <mxPoint as="offset" />
          </mxGeometry>
        </mxCell>
        <mxCell id="MV2tPDvPNBY6R5nugIcb-200" value="appMatters = 2" style="ellipse;whiteSpace=wrap;html=1;" parent="1" vertex="1">
          <mxGeometry x="690" y="490" width="90" height="50" as="geometry" />
        </mxCell>
        <mxCell id="MV2tPDvPNBY6R5nugIcb-201" value="ERROR: INVALID INPUT" style="ellipse;whiteSpace=wrap;html=1;" parent="1" vertex="1">
          <mxGeometry x="1110" y="490" width="110" height="50" as="geometry" />
        </mxCell>
        <mxCell id="MV2tPDvPNBY6R5nugIcb-202" value="" style="endArrow=classic;html=1;rounded=0;exitX=0.178;exitY=0.905;exitDx=0;exitDy=0;entryX=0.696;entryY=0.053;entryDx=0;entryDy=0;exitPerimeter=0;entryPerimeter=0;" parent="1" source="MV2tPDvPNBY6R5nugIcb-177" target="MV2tPDvPNBY6R5nugIcb-200" edge="1">
          <mxGeometry width="50" height="50" relative="1" as="geometry">
            <mxPoint x="673" y="295" as="sourcePoint" />
            <mxPoint x="555" y="371" as="targetPoint" />
          </mxGeometry>
        </mxCell>
        <mxCell id="MV2tPDvPNBY6R5nugIcb-203" value="T" style="edgeLabel;html=1;align=center;verticalAlign=middle;resizable=0;points=[];" parent="MV2tPDvPNBY6R5nugIcb-202" vertex="1" connectable="0">
          <mxGeometry x="-0.0389" y="-1" relative="1" as="geometry">
            <mxPoint as="offset" />
          </mxGeometry>
        </mxCell>
        <mxCell id="MV2tPDvPNBY6R5nugIcb-204" value="" style="endArrow=classic;html=1;rounded=0;exitX=0.729;exitY=0.962;exitDx=0;exitDy=0;exitPerimeter=0;entryX=0.5;entryY=0;entryDx=0;entryDy=0;" parent="1" source="MV2tPDvPNBY6R5nugIcb-177" target="MV2tPDvPNBY6R5nugIcb-201" edge="1">
          <mxGeometry width="50" height="50" relative="1" as="geometry">
            <mxPoint x="869" y="291" as="sourcePoint" />
            <mxPoint x="967" y="357" as="targetPoint" />
          </mxGeometry>
        </mxCell>
        <mxCell id="MV2tPDvPNBY6R5nugIcb-205" value="F" style="edgeLabel;html=1;align=center;verticalAlign=middle;resizable=0;points=[];" parent="MV2tPDvPNBY6R5nugIcb-204" vertex="1" connectable="0">
          <mxGeometry x="-0.1125" relative="1" as="geometry">
            <mxPoint as="offset" />
          </mxGeometry>
        </mxCell>
        <mxCell id="MV2tPDvPNBY6R5nugIcb-206" value="" style="endArrow=classic;html=1;rounded=0;exitX=0.5;exitY=1;exitDx=0;exitDy=0;entryX=0.324;entryY=-0.013;entryDx=0;entryDy=0;entryPerimeter=0;" parent="1" source="MV2tPDvPNBY6R5nugIcb-188" target="MV2tPDvPNBY6R5nugIcb-210" edge="1">
          <mxGeometry width="50" height="50" relative="1" as="geometry">
            <mxPoint x="180" y="270" as="sourcePoint" />
            <mxPoint x="180" y="320" as="targetPoint" />
          </mxGeometry>
        </mxCell>
        <mxCell id="MV2tPDvPNBY6R5nugIcb-207" value="" style="endArrow=classic;html=1;rounded=0;exitX=1;exitY=1;exitDx=0;exitDy=0;entryX=0;entryY=0;entryDx=0;entryDy=0;" parent="1" source="MV2tPDvPNBY6R5nugIcb-187" target="MV2tPDvPNBY6R5nugIcb-210" edge="1">
          <mxGeometry width="50" height="50" relative="1" as="geometry">
            <mxPoint x="424" y="595" as="sourcePoint" />
            <mxPoint x="556" y="756" as="targetPoint" />
          </mxGeometry>
        </mxCell>
        <mxCell id="MV2tPDvPNBY6R5nugIcb-208" value="" style="endArrow=classic;html=1;rounded=0;exitX=0.5;exitY=1;exitDx=0;exitDy=0;entryX=0.636;entryY=-0.013;entryDx=0;entryDy=0;entryPerimeter=0;" parent="1" source="MV2tPDvPNBY6R5nugIcb-195" target="MV2tPDvPNBY6R5nugIcb-210" edge="1">
          <mxGeometry width="50" height="50" relative="1" as="geometry">
            <mxPoint x="424" y="595" as="sourcePoint" />
            <mxPoint x="556" y="756" as="targetPoint" />
          </mxGeometry>
        </mxCell>
        <mxCell id="MV2tPDvPNBY6R5nugIcb-209" value="" style="endArrow=classic;html=1;rounded=0;exitX=0;exitY=1;exitDx=0;exitDy=0;entryX=1;entryY=0;entryDx=0;entryDy=0;" parent="1" source="MV2tPDvPNBY6R5nugIcb-200" target="MV2tPDvPNBY6R5nugIcb-210" edge="1">
          <mxGeometry width="50" height="50" relative="1" as="geometry">
            <mxPoint x="535" y="420" as="sourcePoint" />
            <mxPoint x="580" y="740" as="targetPoint" />
          </mxGeometry>
        </mxCell>
        <mxCell id="MV2tPDvPNBY6R5nugIcb-210" value="userId == complainantId ?" style="ellipse;whiteSpace=wrap;html=1;" parent="1" vertex="1">
          <mxGeometry x="450" y="730" width="150" height="50" as="geometry" />
        </mxCell>
        <mxCell id="MV2tPDvPNBY6R5nugIcb-211" value="appContent == null ?" style="ellipse;whiteSpace=wrap;html=1;" parent="1" vertex="1">
          <mxGeometry x="600" y="840" width="130" height="50" as="geometry" />
        </mxCell>
        <mxCell id="MV2tPDvPNBY6R5nugIcb-212" value="ERROR: COMPLAINING SELF" style="ellipse;whiteSpace=wrap;html=1;" parent="1" vertex="1">
          <mxGeometry x="300" y="840" width="135" height="60" as="geometry" />
        </mxCell>
        <mxCell id="MV2tPDvPNBY6R5nugIcb-213" value="" style="endArrow=classic;html=1;rounded=0;exitX=0.267;exitY=0.973;exitDx=0;exitDy=0;entryX=0.718;entryY=0.013;entryDx=0;entryDy=0;entryPerimeter=0;exitPerimeter=0;" parent="1" source="MV2tPDvPNBY6R5nugIcb-210" target="MV2tPDvPNBY6R5nugIcb-212" edge="1">
          <mxGeometry width="50" height="50" relative="1" as="geometry">
            <mxPoint x="253" y="469" as="sourcePoint" />
            <mxPoint x="159" y="549" as="targetPoint" />
          </mxGeometry>
        </mxCell>
        <mxCell id="MV2tPDvPNBY6R5nugIcb-214" value="T" style="edgeLabel;html=1;align=center;verticalAlign=middle;resizable=0;points=[];" parent="MV2tPDvPNBY6R5nugIcb-213" vertex="1" connectable="0">
          <mxGeometry x="-0.1193" y="1" relative="1" as="geometry">
            <mxPoint as="offset" />
          </mxGeometry>
        </mxCell>
        <mxCell id="MV2tPDvPNBY6R5nugIcb-215" value="" style="endArrow=classic;html=1;rounded=0;exitX=1;exitY=1;exitDx=0;exitDy=0;entryX=0.364;entryY=-0.04;entryDx=0;entryDy=0;entryPerimeter=0;" parent="1" source="MV2tPDvPNBY6R5nugIcb-210" target="MV2tPDvPNBY6R5nugIcb-211" edge="1">
          <mxGeometry width="50" height="50" relative="1" as="geometry">
            <mxPoint x="167" y="588" as="sourcePoint" />
            <mxPoint x="482" y="747" as="targetPoint" />
          </mxGeometry>
        </mxCell>
        <mxCell id="MV2tPDvPNBY6R5nugIcb-216" value="F" style="edgeLabel;html=1;align=center;verticalAlign=middle;resizable=0;points=[];" parent="MV2tPDvPNBY6R5nugIcb-215" vertex="1" connectable="0">
          <mxGeometry x="-0.0854" y="-2" relative="1" as="geometry">
            <mxPoint y="-1" as="offset" />
          </mxGeometry>
        </mxCell>
        <mxCell id="MV2tPDvPNBY6R5nugIcb-217" value="ERROR: CONTENT NULL" style="ellipse;whiteSpace=wrap;html=1;" parent="1" vertex="1">
          <mxGeometry x="440" y="940" width="130" height="60" as="geometry" />
        </mxCell>
        <mxCell id="MV2tPDvPNBY6R5nugIcb-218" value="appContent.length &amp;gt; 1024 ?" style="ellipse;whiteSpace=wrap;html=1;" parent="1" vertex="1">
          <mxGeometry x="710" y="940" width="160" height="50" as="geometry" />
        </mxCell>
        <mxCell id="MV2tPDvPNBY6R5nugIcb-219" value="" style="endArrow=classic;html=1;rounded=0;exitX=0.246;exitY=0.973;exitDx=0;exitDy=0;entryX=0.782;entryY=0.027;entryDx=0;entryDy=0;entryPerimeter=0;exitPerimeter=0;" parent="1" source="MV2tPDvPNBY6R5nugIcb-211" target="MV2tPDvPNBY6R5nugIcb-217" edge="1">
          <mxGeometry width="50" height="50" relative="1" as="geometry">
            <mxPoint x="500" y="789" as="sourcePoint" />
            <mxPoint x="414" y="851" as="targetPoint" />
          </mxGeometry>
        </mxCell>
        <mxCell id="MV2tPDvPNBY6R5nugIcb-220" value="T" style="edgeLabel;html=1;align=center;verticalAlign=middle;resizable=0;points=[];" parent="MV2tPDvPNBY6R5nugIcb-219" vertex="1" connectable="0">
          <mxGeometry x="-0.1193" y="1" relative="1" as="geometry">
            <mxPoint as="offset" />
          </mxGeometry>
        </mxCell>
        <mxCell id="MV2tPDvPNBY6R5nugIcb-221" value="" style="endArrow=classic;html=1;rounded=0;exitX=0.779;exitY=0.893;exitDx=0;exitDy=0;entryX=0.325;entryY=-0.013;entryDx=0;entryDy=0;entryPerimeter=0;exitPerimeter=0;" parent="1" source="MV2tPDvPNBY6R5nugIcb-211" target="MV2tPDvPNBY6R5nugIcb-218" edge="1">
          <mxGeometry width="50" height="50" relative="1" as="geometry">
            <mxPoint x="588" y="783" as="sourcePoint" />
            <mxPoint x="657" y="848" as="targetPoint" />
          </mxGeometry>
        </mxCell>
        <mxCell id="MV2tPDvPNBY6R5nugIcb-222" value="F" style="edgeLabel;html=1;align=center;verticalAlign=middle;resizable=0;points=[];" parent="MV2tPDvPNBY6R5nugIcb-221" vertex="1" connectable="0">
          <mxGeometry x="-0.0854" y="-2" relative="1" as="geometry">
            <mxPoint y="-1" as="offset" />
          </mxGeometry>
        </mxCell>
        <mxCell id="MV2tPDvPNBY6R5nugIcb-223" value="ERROR: CONTENT LENGTH EXCEED" style="ellipse;whiteSpace=wrap;html=1;" parent="1" vertex="1">
          <mxGeometry x="550" y="1070" width="130" height="60" as="geometry" />
        </mxCell>
        <mxCell id="MV2tPDvPNBY6R5nugIcb-224" value="" style="endArrow=classic;html=1;rounded=0;exitX=0.25;exitY=0.973;exitDx=0;exitDy=0;entryX=0.8;entryY=0.067;entryDx=0;entryDy=0;entryPerimeter=0;exitPerimeter=0;" parent="1" source="MV2tPDvPNBY6R5nugIcb-218" target="MV2tPDvPNBY6R5nugIcb-223" edge="1">
          <mxGeometry width="50" height="50" relative="1" as="geometry">
            <mxPoint x="642" y="899" as="sourcePoint" />
            <mxPoint x="566" y="951" as="targetPoint" />
          </mxGeometry>
        </mxCell>
        <mxCell id="MV2tPDvPNBY6R5nugIcb-225" value="T" style="edgeLabel;html=1;align=center;verticalAlign=middle;resizable=0;points=[];" parent="MV2tPDvPNBY6R5nugIcb-224" vertex="1" connectable="0">
          <mxGeometry x="-0.1193" y="1" relative="1" as="geometry">
            <mxPoint as="offset" />
          </mxGeometry>
        </mxCell>
        <mxCell id="MV2tPDvPNBY6R5nugIcb-226" value="" style="endArrow=classic;html=1;rounded=0;exitX=0.721;exitY=1.013;exitDx=0;exitDy=0;exitPerimeter=0;" parent="1" source="MV2tPDvPNBY6R5nugIcb-218" edge="1">
          <mxGeometry width="50" height="50" relative="1" as="geometry">
            <mxPoint x="711" y="895" as="sourcePoint" />
            <mxPoint x="910" y="1070" as="targetPoint" />
          </mxGeometry>
        </mxCell>
        <mxCell id="MV2tPDvPNBY6R5nugIcb-227" value="F" style="edgeLabel;html=1;align=center;verticalAlign=middle;resizable=0;points=[];" parent="MV2tPDvPNBY6R5nugIcb-226" vertex="1" connectable="0">
          <mxGeometry x="-0.0854" y="-2" relative="1" as="geometry">
            <mxPoint y="-1" as="offset" />
          </mxGeometry>
        </mxCell>
        <mxCell id="MV2tPDvPNBY6R5nugIcb-228" value="" style="ellipse;whiteSpace=wrap;html=1;aspect=fixed;" parent="1" vertex="1">
          <mxGeometry x="900" y="1070" width="40" height="40" as="geometry" />
        </mxCell>
        <mxCell id="8seS6XwP5XeIF1yNIQYr-1" value="Ⅰ" style="text;html=1;align=center;verticalAlign=middle;resizable=0;points=[];autosize=1;strokeColor=none;fillColor=none;fontColor=#009999;fontStyle=1;fontSize=24;" parent="1" vertex="1">
          <mxGeometry x="355" y="160" width="50" height="40" as="geometry" />
        </mxCell>
        <mxCell id="8seS6XwP5XeIF1yNIQYr-3" value="Ⅱ" style="text;html=1;align=center;verticalAlign=middle;resizable=0;points=[];autosize=1;strokeColor=none;fillColor=none;fontColor=#009999;fontStyle=1;fontSize=24;" parent="1" vertex="1">
          <mxGeometry x="145" y="365" width="50" height="40" as="geometry" />
        </mxCell>
        <mxCell id="8seS6XwP5XeIF1yNIQYr-4" value="Ⅲ" style="text;html=1;align=center;verticalAlign=middle;resizable=0;points=[];autosize=1;strokeColor=none;fillColor=none;fontColor=#009999;fontStyle=1;fontSize=24;" parent="1" vertex="1">
          <mxGeometry x="740" y="290" width="50" height="40" as="geometry" />
        </mxCell>
        <mxCell id="8seS6XwP5XeIF1yNIQYr-5" value="Ⅳ" style="text;html=1;align=center;verticalAlign=middle;resizable=0;points=[];autosize=1;strokeColor=none;fillColor=none;fontColor=#009999;fontStyle=1;fontSize=24;" parent="1" vertex="1">
          <mxGeometry x="260" y="480" width="50" height="40" as="geometry" />
        </mxCell>
        <mxCell id="8seS6XwP5XeIF1yNIQYr-6" value="Ⅴ" style="text;html=1;align=center;verticalAlign=middle;resizable=0;points=[];autosize=1;strokeColor=none;fillColor=none;fontColor=#009999;fontStyle=1;fontSize=24;" parent="1" vertex="1">
          <mxGeometry x="950" y="430" width="50" height="40" as="geometry" />
        </mxCell>
        <mxCell id="8seS6XwP5XeIF1yNIQYr-7" value="Ⅵ" style="text;html=1;align=center;verticalAlign=middle;resizable=0;points=[];autosize=1;strokeColor=none;fillColor=none;fontColor=#009999;fontStyle=1;fontSize=24;" parent="1" vertex="1">
          <mxGeometry x="510" y="780" width="50" height="40" as="geometry" />
        </mxCell>
        <mxCell id="8seS6XwP5XeIF1yNIQYr-9" value="Ⅶ" style="text;html=1;align=center;verticalAlign=middle;resizable=0;points=[];autosize=1;strokeColor=none;fillColor=none;fontColor=#009999;fontStyle=1;fontSize=24;" parent="1" vertex="1">
          <mxGeometry x="640" y="890" width="50" height="40" as="geometry" />
        </mxCell>
        <mxCell id="8seS6XwP5XeIF1yNIQYr-10" value="Ⅷ" style="text;html=1;align=center;verticalAlign=middle;resizable=0;points=[];autosize=1;strokeColor=none;fillColor=none;fontColor=#009999;fontStyle=1;fontSize=24;" parent="1" vertex="1">
          <mxGeometry x="770" y="990" width="50" height="40" as="geometry" />
        </mxCell>
        <mxCell id="8seS6XwP5XeIF1yNIQYr-11" value="1" style="text;html=1;align=center;verticalAlign=middle;resizable=0;points=[];autosize=1;strokeColor=none;fillColor=none;fontColor=#99004D;fontStyle=1;fontSize=16;" parent="1" vertex="1">
          <mxGeometry x="270" y="90" width="30" height="30" as="geometry" />
        </mxCell>
        <mxCell id="8seS6XwP5XeIF1yNIQYr-12" value="2" style="text;html=1;align=center;verticalAlign=middle;resizable=0;points=[];autosize=1;strokeColor=none;fillColor=none;fontColor=#99004D;fontStyle=1;fontSize=16;" parent="1" vertex="1">
          <mxGeometry x="370" y="90" width="30" height="30" as="geometry" />
        </mxCell>
        <mxCell id="8seS6XwP5XeIF1yNIQYr-13" value="3" style="text;html=1;align=center;verticalAlign=middle;resizable=0;points=[];autosize=1;strokeColor=none;fillColor=none;fontColor=#99004D;fontStyle=1;fontSize=16;" parent="1" vertex="1">
          <mxGeometry x="459" y="90" width="30" height="30" as="geometry" />
        </mxCell>
        <mxCell id="8seS6XwP5XeIF1yNIQYr-14" value="4" style="text;html=1;align=center;verticalAlign=middle;resizable=0;points=[];autosize=1;strokeColor=none;fillColor=none;fontColor=#99004D;fontStyle=1;fontSize=16;" parent="1" vertex="1">
          <mxGeometry x="155" y="310" width="30" height="30" as="geometry" />
        </mxCell>
        <mxCell id="8seS6XwP5XeIF1yNIQYr-15" value="5" style="text;html=1;align=center;verticalAlign=middle;resizable=0;points=[];autosize=1;strokeColor=none;fillColor=none;fontColor=#99004D;fontStyle=1;fontSize=16;" parent="1" vertex="1">
          <mxGeometry x="650" y="225" width="30" height="30" as="geometry" />
        </mxCell>
        <mxCell id="8seS6XwP5XeIF1yNIQYr-16" value="6" style="text;html=1;align=center;verticalAlign=middle;resizable=0;points=[];autosize=1;strokeColor=none;fillColor=none;fontColor=#99004D;fontStyle=1;fontSize=16;" parent="1" vertex="1">
          <mxGeometry x="735" y="225" width="30" height="30" as="geometry" />
        </mxCell>
        <mxCell id="8seS6XwP5XeIF1yNIQYr-17" value="7" style="text;html=1;align=center;verticalAlign=middle;resizable=0;points=[];autosize=1;strokeColor=none;fillColor=none;fontColor=#99004D;fontStyle=1;fontSize=16;" parent="1" vertex="1">
          <mxGeometry x="820" y="225" width="30" height="30" as="geometry" />
        </mxCell>
        <mxCell id="8seS6XwP5XeIF1yNIQYr-18" value="8" style="text;html=1;align=center;verticalAlign=middle;resizable=0;points=[];autosize=1;strokeColor=none;fillColor=none;fontColor=#99004D;fontStyle=1;fontSize=16;" parent="1" vertex="1">
          <mxGeometry x="270" y="420" width="30" height="30" as="geometry" />
        </mxCell>
        <mxCell id="8seS6XwP5XeIF1yNIQYr-19" value="9" style="text;html=1;align=center;verticalAlign=middle;resizable=0;points=[];autosize=1;strokeColor=none;fillColor=none;fontColor=#99004D;fontStyle=1;fontSize=16;" parent="1" vertex="1">
          <mxGeometry x="870" y="360" width="30" height="30" as="geometry" />
        </mxCell>
        <mxCell id="8seS6XwP5XeIF1yNIQYr-20" value="10" style="text;html=1;align=center;verticalAlign=middle;resizable=0;points=[];autosize=1;strokeColor=none;fillColor=none;fontColor=#99004D;fontStyle=1;fontSize=16;" parent="1" vertex="1">
          <mxGeometry x="955" y="360" width="40" height="30" as="geometry" />
        </mxCell>
        <mxCell id="8seS6XwP5XeIF1yNIQYr-21" value="11" style="text;html=1;align=center;verticalAlign=middle;resizable=0;points=[];autosize=1;strokeColor=none;fillColor=none;fontColor=#99004D;fontStyle=1;fontSize=16;" parent="1" vertex="1">
          <mxGeometry x="1040" y="360" width="40" height="30" as="geometry" />
        </mxCell>
        <mxCell id="8seS6XwP5XeIF1yNIQYr-22" value="12" style="text;html=1;align=center;verticalAlign=middle;resizable=0;points=[];autosize=1;strokeColor=none;fillColor=none;fontColor=#99004D;fontStyle=1;fontSize=16;" parent="1" vertex="1">
          <mxGeometry x="505" y="730" width="40" height="30" as="geometry" />
        </mxCell>
        <mxCell id="8seS6XwP5XeIF1yNIQYr-23" value="13" style="text;html=1;align=center;verticalAlign=middle;resizable=0;points=[];autosize=1;strokeColor=none;fillColor=none;fontColor=#99004D;fontStyle=1;fontSize=16;" parent="1" vertex="1">
          <mxGeometry x="645" y="840" width="40" height="30" as="geometry" />
        </mxCell>
        <mxCell id="8seS6XwP5XeIF1yNIQYr-24" value="14" style="text;html=1;align=center;verticalAlign=middle;resizable=0;points=[];autosize=1;strokeColor=none;fillColor=none;fontColor=#99004D;fontStyle=1;fontSize=16;" parent="1" vertex="1">
          <mxGeometry x="770" y="940" width="40" height="30" as="geometry" />
        </mxCell>
      </root>
    </mxGraphModel>
  </diagram>
</mxfile>
